<?xml version="1.0" encoding="utf-8"?>
<!-- Generator: Adobe Illustrator 21.1.0, SVG Export Plug-In . SVG Version: 6.00 Build 0)  -->
<svg version="1.1" id="レイヤー_1" xmlns="http://www.w3.org/2000/svg" xmlns:xlink="http://www.w3.org/1999/xlink" x="0px"
	 y="0px" viewBox="0 0 107.6 13.6" style="enable-background:new 0 0 107.6 13.6;" xml:space="preserve">
<style type="text/css">
	.st0{fill:#303259;}
</style>
<g>
	<path class="st0" d="M9,0h2.9v13.3H9V7.6H2.9v5.7H0V0h2.9v5H9V0z"/>
	<path class="st0" d="M22,0l5.6,13.3h-3.1l-1.2-2.9h-5.7l-1.1,2.9h-3.1L19,0H22z M22.2,7.9l-1.7-4.2l-1.7,4.2H22.2z"/>
	<path class="st0" d="M39,3.9c0,0.4-0.1,0.8-0.2,1.2s-0.3,0.7-0.5,1.1c-0.2,0.3-0.5,0.6-0.8,0.8s-0.6,0.4-1,0.6l4.4,5.7h-3.3
		l-4.1-5.4h-1.3v5.4h-2.9V0h5.9c0.5,0,1,0.1,1.5,0.3s0.9,0.5,1.2,0.8c0.3,0.4,0.6,0.8,0.8,1.3C38.9,2.9,39,3.4,39,3.9z M34.8,5.3
		c0.4,0,0.7-0.1,0.9-0.4c0.3-0.3,0.4-0.6,0.4-1s-0.1-0.7-0.4-1s-0.6-0.4-0.9-0.4h-2.5v2.8H34.8z"/>
	<path class="st0" d="M50.3,0l5.6,13.3h-3.1l-1.2-2.9h-5.7l-1.1,2.9h-3.1L47.2,0H50.3z M50.6,7.9l-1.7-4.2l-1.7,4.2H50.6z"/>
	<path class="st0" d="M65,0v8.1v0.5c0,0.6,0,1.1-0.1,1.6c-0.1,0.5-0.3,1-0.6,1.5c-0.4,0.6-0.9,1.1-1.6,1.4s-1.3,0.5-2,0.5
		c-0.5,0-0.9-0.1-1.4-0.2c-0.4-0.2-0.8-0.4-1.2-0.7c-0.4-0.3-0.7-0.6-0.9-1c-0.3-0.4-0.5-0.8-0.6-1.2l2.5-0.8
		c0.1,0.4,0.3,0.7,0.6,0.9c0.3,0.2,0.6,0.4,1,0.4s0.8-0.1,1-0.4s0.4-0.6,0.5-1c0,0,0-0.2,0-0.5s0-0.7,0-1.1c0-0.4,0-0.9,0-1.5
		s0-1.1,0-1.7c0-1.3,0-2.8,0-4.5H65V0z"/>
	<path class="st0" d="M76.3,0h2.9v8.5c0,0.7-0.1,1.3-0.4,1.9c-0.3,0.6-0.7,1.2-1.1,1.6c-0.4,0.4-1,0.8-1.7,1.1
		c-0.6,0.3-1.3,0.4-2,0.4s-1.4-0.1-2-0.4c-0.6-0.3-1.2-0.6-1.7-1.1s-0.8-1-1.1-1.6c-0.3-0.6-0.4-1.3-0.4-1.9V0h2.9v7.9
		c0,0.4,0.1,0.7,0.2,1.1c0.1,0.3,0.3,0.6,0.5,0.9c0.2,0.3,0.5,0.5,0.8,0.6s0.6,0.2,0.9,0.2s0.6-0.1,0.9-0.2s0.5-0.4,0.8-0.6
		C76,9.6,76.2,9.3,76.3,9c0.1-0.3,0.2-0.7,0.2-1.1V0H76.3z"/>
	<path class="st0" d="M88.3,6.1l6.4,7.2h-3.5l-4.7-5.4l-1.1,1.2v4.2h-2.9V0h2.9v5.4L90.8,0h3.6L88.3,6.1z"/>
	<path class="st0" d="M104.7,0h2.9v8.5c0,0.7-0.1,1.3-0.4,1.9c-0.3,0.6-0.7,1.2-1.1,1.6s-1,0.8-1.7,1.1c-0.6,0.3-1.3,0.4-2,0.4
		s-1.4-0.1-2-0.4s-1.2-0.6-1.7-1.1s-0.8-1-1.1-1.6s-0.4-1.3-0.4-1.9V0h2.9v7.9c0,0.4,0.1,0.7,0.2,1.1c0.1,0.3,0.3,0.6,0.5,0.9
		c0.2,0.3,0.5,0.5,0.8,0.6s0.6,0.2,0.9,0.2c0.3,0,0.6-0.1,0.9-0.2s0.5-0.4,0.8-0.6c0.2-0.3,0.4-0.6,0.5-0.9c0.1-0.3,0.2-0.7,0.2-1.1
		V0H104.7z"/>
</g>
</svg>
